<svg xmlns="http://www.w3.org/2000/svg" viewBox="0 0 48 43.73"><defs><style>.cls-1{fill:#79c37f;}.cls-2{fill:#1b335f;}.cls-3{fill:#4ebce8;}.cls-4{opacity:0.7;}.cls-5{fill:#fff;}</style></defs><title>call history</title><g id="Layer_2" data-name="Layer 2"><g id="Layer_1-2" data-name="Layer 1"><path class="cls-1" d="M3,28a1.32,1.32,0,0,0,1.32,1.32H14.86A1.32,1.32,0,0,0,16.18,28a1.7,1.7,0,0,0-.43-1l-3.88-3.87L28.82,6.22a1.88,1.88,0,0,0-2.66-2.66L9.21,20.49,5.3,16.58a1.32,1.32,0,0,0-.94-.38h0A1.32,1.32,0,0,0,3,17.51Z"/><path class="cls-2" d="M27.49,3a1.88,1.88,0,0,1,1.33,3.22L11.88,23.16,15.75,27a1.7,1.7,0,0,1,.43,1,1.32,1.32,0,0,1-1.32,1.32H4.32A1.32,1.32,0,0,1,3,28V17.51a1.32,1.32,0,0,1,1.32-1.32h0a1.32,1.32,0,0,1,.94.38l3.92,3.91L26.16,3.55A1.88,1.88,0,0,1,27.49,3m0-3A4.86,4.86,0,0,0,24,1.43L9.21,16.25,7.42,14.46A4.28,4.28,0,0,0,5,13.24l-.13,0H4.32A4.32,4.32,0,0,0,0,17.51V28a4.32,4.32,0,0,0,4.32,4.32H14.86A4.32,4.32,0,0,0,19.18,28a4.66,4.66,0,0,0-1.33-3.16l-1.74-1.74L30.94,8.34A4.88,4.88,0,0,0,27.49,0Z"/><path class="cls-3" d="M45,15.68a1.31,1.31,0,0,0-1.31-1.31H33.14a1.32,1.32,0,0,0-1.32,1.32,1.69,1.69,0,0,0,.43,1l3.88,3.87L19.19,37.51a1.88,1.88,0,1,0,2.66,2.66L38.79,23.24l3.92,3.91a1.32,1.32,0,0,0,.94.38s0,.06.25-.14A3.52,3.52,0,0,0,45,25Z"/><path class="cls-2" d="M43.69,14.37A1.31,1.31,0,0,1,45,15.68V25a3.52,3.52,0,0,1-1.09,2.37c-.15.13-.2.15-.22.15h0a1.32,1.32,0,0,1-.94-.38l-3.92-3.91L21.85,40.18a1.88,1.88,0,1,1-2.66-2.66L36.13,20.57,32.26,16.7a1.35,1.35,0,0,1,.89-2.33H43.69m0-3H33.14a4.32,4.32,0,0,0-4.32,4.32,4.65,4.65,0,0,0,1.31,3.14l1.75,1.75L17.07,35.39A4.88,4.88,0,0,0,24,42.3L38.8,27.48l1.79,1.79a4.28,4.28,0,0,0,2.35,1.21l.15.06h.59a3.28,3.28,0,0,0,2.14-.84A6.5,6.5,0,0,0,48,25V15.68a4.32,4.32,0,0,0-4.31-4.31Z"/><g class="cls-4"><rect class="cls-5" x="42" y="15.37" width="2" height="10" rx="0.89" ry="0.89"/></g><g class="cls-4"><rect class="cls-5" x="4" y="18.37" width="2" height="10" rx="0.89" ry="0.89"/></g></g></g></svg>