<svg xmlns="http://www.w3.org/2000/svg" viewBox="0 0 44.55 37.99"><defs><style>.cls-1{fill:#1b335f;}.cls-2{fill:#f7ca10;}</style></defs><title>contacts</title><g id="Layer_2" data-name="Layer 2"><g id="Layer_1-2" data-name="Layer 1"><path class="cls-1" d="M11.13,13.61A4.71,4.71,0,0,1,6.3,9a4.71,4.71,0,0,1,4.83-4.58,2.18,2.18,0,0,1,2.24,2.12,2.18,2.18,0,0,1-2.24,2.12.34.34,0,1,0,0,.68,2.18,2.18,0,0,1,2.24,2.12A2.18,2.18,0,0,1,11.13,13.61Z"/><path class="cls-1" d="M2.24,26.73A2.18,2.18,0,0,1,0,24.61a10.33,10.33,0,0,1,5.59-9.11,2.31,2.31,0,0,1,3.05.78,2.06,2.06,0,0,1-.82,2.89,6.17,6.17,0,0,0-3.35,5.43A2.18,2.18,0,0,1,2.24,26.73Z"/><path class="cls-1" d="M25.68,0a8.91,8.91,0,1,0,8.91,8.91A8.91,8.91,0,0,0,25.68,0Z"/><path class="cls-1" d="M18.9,18A18.5,18.5,0,0,0,6.68,35.6,2.38,2.38,0,0,0,9,38H42.18a2.38,2.38,0,0,0,2.37-2.39,18.58,18.58,0,0,0-12-17.66l-6.93,3.8L18.9,18Z"/><path class="cls-2" d="M25.59,4.47a4.46,4.46,0,1,1-4.46,4.46,4.46,4.46,0,0,1,4.46-4.46"/><path class="cls-2" d="M18.65,22.27,23.47,25l2.15,1.24,2.16-1.16,5-2.84A14.34,14.34,0,0,1,40,33H11.24a14.34,14.34,0,0,1,7.41-10.72"/></g></g></svg>