<svg xmlns="http://www.w3.org/2000/svg" viewBox="0 0 48.75 42.5"><defs><style>.cls-1{fill:#1b335f;}.cls-2{fill:#79c37f;}.cls-3{fill:#3eab49;}</style></defs><title>home</title><g id="Layer_2" data-name="Layer 2"><g id="Layer_1-2" data-name="Layer 1"><path class="cls-1" d="M48,23.24,43.2,18.32l-.06-.07L26.1.73a2.44,2.44,0,0,0-3.49,0L.7,23.2A2.45,2.45,0,0,0,0,25v0a2.47,2.47,0,0,0,2.44,2.5H4.88V40.18A2.32,2.32,0,0,0,7.19,42.5H41.56a2.32,2.32,0,0,0,2.32-2.32V27.5h2.45A2.34,2.34,0,0,0,48,26.79,2.56,2.56,0,0,0,48,23.24Zm-9.17,2.07V37.5h-29v-16L24.36,6.91,38.88,21.56Z"/><path class="cls-2" d="M39.88,25.74V38.5h-31V21.78L24.35,6.47,39.88,21.81Z"/><rect class="cls-3" x="20.87" y="23.5" width="8" height="15"/></g></g></svg>