<svg xmlns="http://www.w3.org/2000/svg" viewBox="0 0 36.92 43.54"><defs><style>.cls-1{fill:#1b335f;}.cls-2{fill:#1f9bd7;}.cls-3{fill:#9ad9f2;}.cls-4{fill:#fff;}</style></defs><title>search</title><g id="Layer_2" data-name="Layer 2"><g id="Layer_1-2" data-name="Layer 1"><path class="cls-1" d="M31.19,38.62,23.56,31a12.47,12.47,0,0,0,1.81-6.49A13.16,13.16,0,0,0,12.49,11.63,12.5,12.5,0,0,0,0,24.12,13.16,13.16,0,0,0,12.88,37a12.44,12.44,0,0,0,6.29-1.7L26.84,43a1.93,1.93,0,0,0,2.72,0l1.9-1.91c.75-.75.48-1.7-.27-2.45"/><path class="cls-2" d="M30.07,20.42a1.41,1.41,0,0,1-1.36-1A15.52,15.52,0,0,0,17.44,8.29a1.41,1.41,0,1,1,.68-2.73,18.35,18.35,0,0,1,13.31,13.1,1.41,1.41,0,0,1-1,1.72,1.43,1.43,0,0,1-.36,0Z"/><path class="cls-2" d="M35.51,19a1.41,1.41,0,0,1-1.36-1A21.12,21.12,0,0,0,18.61,2.78,1.41,1.41,0,1,1,19.27,0a23.94,23.94,0,0,1,17.6,17.17,1.41,1.41,0,0,1-1,1.72,1.38,1.38,0,0,1-.36,0Z"/><path class="cls-3" d="M3.85,24.12a8.65,8.65,0,0,1,8.65-8.65,9.32,9.32,0,0,1,9,9,8.65,8.65,0,0,1-8.65,8.65,9.32,9.32,0,0,1-9-9"/><path class="cls-4" d="M12.08,22a3.15,3.15,0,0,1,3.15-3.15,3.39,3.39,0,0,1,3.29,3.29,3.15,3.15,0,0,1-3.15,3.15A3.39,3.39,0,0,1,12.08,22"/></g></g></svg>